<svg width="15" height="16" viewBox="0 0 15 16" fill="none" xmlns="http://www.w3.org/2000/svg">
<path d="M5.46962 10.657L3.81271 8.72532C3.72343 8.62124 3.60234 8.56276 3.47607 8.56276C3.34981 8.56276 3.22872 8.62124 3.13944 8.72532C3.05016 8.82941 3 8.97058 3 9.11778C3 9.19067 3.01231 9.26284 3.03624 9.33018C3.06016 9.39752 3.09523 9.4587 3.13944 9.51024L5.13538 11.8372C5.3216 12.0543 5.62242 12.0543 5.80865 11.8372L10.8606 5.94748C10.9498 5.8434 11 5.70222 11 5.55502C11 5.40782 10.9498 5.26665 10.8606 5.16256C10.7713 5.05848 10.6502 5 10.5239 5C10.3977 5 10.2766 5.05848 10.1873 5.16256L5.46962 10.657Z" fill="#2C2C2C"/>
<rect x="0.5" y="1" width="14" height="14" rx="1.5" stroke="#2C2C2C"/>
</svg>
