<svg width="388" height="388" viewBox="0 0 388 388" fill="none" xmlns="http://www.w3.org/2000/svg">
<g clip-path="url(#clip0_26_36)">
<path d="M161.411 76.886L147.312 53.8168C110.317 69.9646 80.871 101.546 68.9633 142.609L94.9857 148.933C99.9046 132.707 108.432 117.803 119.933 105.329C131.433 92.855 145.611 83.1327 161.411 76.886ZM302.384 199.331L328.407 205.655C336.541 163.675 324.872 122.102 299.543 90.8097L276.56 104.868C287.662 117.701 295.744 132.847 300.212 149.194C304.681 165.54 305.423 182.672 302.384 199.331ZM275.176 199.588C284.852 159.768 271.615 121.249 236.546 103.386L238.689 94.5661C241.305 83.8006 234.699 72.9919 223.9 70.3677C213.101 67.7434 202.272 74.3153 199.655 85.0808L197.512 93.9008C158.027 93.6464 128.75 121.697 119.042 161.647L103.282 226.499L70.9561 246.117L67.8043 259.087L275.983 309.676L279.135 296.705L259.417 264.441L275.176 199.588ZM162.438 323.293C164.26 323.736 165.983 324.017 167.769 324.039C176.667 324.278 184.95 320.247 190.224 313.287C192.282 310.49 193.752 307.276 194.634 303.644L142.589 290.997C139.252 305.296 147.996 319.783 162.438 323.293Z" fill="#0ABBEF"/>
<path d="M159.171 142.653L160.064 138.98L170.559 141.531L169.666 145.204L159.171 142.653ZM183.351 158.273L188.214 138.263L182.785 140.019L184.061 134.772L189.472 133.086L194.334 134.267L188.214 159.454L183.351 158.273ZM204.076 163.865C202.211 163.411 200.673 162.624 199.464 161.503C198.254 160.382 197.429 159.026 196.988 157.437C196.546 155.848 196.553 154.121 197.006 152.255L198.842 144.699C199.295 142.833 200.083 141.296 201.204 140.086C202.325 138.877 203.681 138.051 205.27 137.61C206.859 137.169 208.586 137.175 210.452 137.628C212.318 138.082 213.855 138.869 215.065 139.99C216.274 141.112 217.099 142.467 217.541 144.056C217.982 145.645 217.976 147.373 217.522 149.238L215.686 156.794C215.233 158.66 214.446 160.198 213.324 161.407C212.203 162.616 210.848 163.442 209.259 163.883C207.67 164.324 205.942 164.318 204.076 163.865ZM205.173 159.352C206.013 159.556 206.819 159.542 207.591 159.31C208.364 159.078 209.031 158.672 209.592 158.092C210.152 157.512 210.535 156.802 210.739 155.963L212.753 147.672C212.957 146.832 212.943 146.026 212.711 145.254C212.479 144.481 212.073 143.814 211.493 143.253C210.913 142.693 210.203 142.31 209.364 142.106C208.524 141.902 207.718 141.916 206.946 142.148C206.173 142.38 205.506 142.786 204.945 143.366C204.385 143.946 204.002 144.656 203.798 145.496L201.783 153.786C201.579 154.626 201.593 155.432 201.826 156.205C202.058 156.977 202.464 157.644 203.044 158.205C203.624 158.766 204.333 159.148 205.173 159.352ZM229.287 169.435L226.903 165.522L254.298 148.839L256.672 152.787L229.287 169.435ZM245.951 174.04C244.796 173.76 243.809 173.224 242.989 172.432C242.183 171.631 241.609 170.689 241.267 169.605C240.928 168.51 240.901 167.38 241.184 166.214C241.462 165.071 242.008 164.092 242.824 163.278C243.639 162.463 244.594 161.886 245.689 161.547C246.784 161.208 247.891 161.175 249.011 161.447C250.165 161.727 251.151 162.27 251.968 163.073C252.789 163.865 253.362 164.808 253.69 165.9C254.032 166.983 254.061 168.108 253.778 169.274C253.494 170.44 252.951 171.432 252.147 172.249C251.358 173.057 250.416 173.631 249.321 173.97C248.228 174.298 247.105 174.321 245.951 174.04ZM246.928 170.018C247.336 170.117 247.735 170.102 248.124 169.975C248.525 169.85 248.871 169.644 249.163 169.357C249.458 169.058 249.655 168.704 249.755 168.296C249.854 167.888 249.839 167.49 249.712 167.1C249.587 166.7 249.375 166.352 249.076 166.057C248.789 165.765 248.441 165.569 248.033 165.47C247.625 165.371 247.221 165.384 246.82 165.508C246.431 165.636 246.089 165.849 245.794 166.148C245.502 166.435 245.306 166.783 245.207 167.191C245.108 167.599 245.121 168.004 245.245 168.405C245.373 168.794 245.581 169.134 245.868 169.426C246.167 169.721 246.52 169.918 246.928 170.018ZM234.574 156.827C233.419 156.547 232.432 156.01 231.612 155.218C230.794 154.415 230.215 153.471 229.873 152.388C229.546 151.295 229.524 150.166 229.807 149C230.085 147.858 230.631 146.879 231.447 146.064C232.262 145.25 233.217 144.673 234.312 144.334C235.407 143.995 236.514 143.962 237.634 144.234C238.788 144.514 239.768 145.055 240.574 145.856C241.394 146.648 241.974 147.591 242.313 148.686C242.655 149.77 242.684 150.895 242.4 152.061C242.117 153.227 241.573 154.218 240.77 155.036C239.969 155.841 239.021 156.414 237.926 156.753C236.845 157.083 235.728 157.108 234.574 156.827ZM235.551 152.804C235.959 152.903 236.358 152.889 236.747 152.761C237.148 152.637 237.494 152.431 237.786 152.143C238.081 151.845 238.278 151.491 238.377 151.083C238.477 150.675 238.462 150.276 238.335 149.887C238.21 149.486 237.998 149.138 237.699 148.843C237.412 148.551 237.064 148.356 236.656 148.257C236.248 148.157 235.844 148.17 235.443 148.295C235.054 148.423 234.712 148.636 234.417 148.935C234.125 149.222 233.929 149.57 233.83 149.978C233.731 150.386 233.743 150.79 233.868 151.191C233.996 151.58 234.204 151.921 234.491 152.213C234.789 152.508 235.143 152.705 235.551 152.804ZM142.758 176.194L146.158 162.201L148.801 162.844L147.403 168.596L153.661 170.117L155.059 164.364L157.702 165.007L154.302 178.999L151.659 178.357L153.061 172.585L146.803 171.064L145.401 176.836L142.758 176.194ZM156.058 179.426L163.734 166.472L167.679 167.431L168.554 182.463L165.834 181.802L165.023 168.535L165.529 168.658L158.779 180.087L156.058 179.426ZM159.332 177.134L159.932 174.666L167.317 176.461L166.717 178.929L159.332 177.134ZM174.187 183.832L177.587 169.839L189.131 172.644L185.731 186.637L183.088 185.995L185.888 174.47L179.63 172.949L176.83 184.474L174.187 183.832ZM188.459 187.3L191.859 173.307L200.993 175.527L200.394 177.995L193.902 176.417L193.175 179.41L198.5 180.704L197.9 183.172L192.575 181.878L191.702 185.474L198.193 187.051L197.593 189.519L188.459 187.3ZM199.922 190.085L203.322 176.093L209.23 177.528C209.367 177.561 209.546 177.612 209.77 177.68C210.002 177.743 210.204 177.813 210.378 177.889C211.182 178.222 211.798 178.663 212.227 179.214C212.663 179.765 212.929 180.393 213.026 181.095C213.124 181.792 213.078 182.532 212.887 183.315C212.697 184.099 212.394 184.78 211.979 185.359C211.572 185.932 211.049 186.364 210.409 186.655C209.775 186.947 209.028 187.057 208.167 186.985C207.98 186.967 207.768 186.936 207.531 186.892C207.295 186.848 207.112 186.811 206.983 186.779L203.718 185.986L202.565 190.728L199.922 190.085ZM204.317 183.517L207.466 184.283C207.602 184.316 207.752 184.345 207.917 184.372C208.082 184.398 208.238 184.408 208.383 184.403C208.763 184.392 209.078 184.297 209.327 184.117C209.578 183.931 209.773 183.708 209.912 183.447C210.059 183.18 210.163 182.921 210.225 182.668C210.286 182.416 210.312 182.141 210.302 181.843C210.3 181.541 210.229 181.253 210.09 180.979C209.952 180.698 209.717 180.466 209.384 180.283C209.258 180.211 209.115 180.148 208.956 180.096C208.798 180.044 208.65 180.001 208.514 179.968L205.366 179.203L204.317 183.517ZM212.562 193.157L215.962 179.164L221.56 180.524C222.557 180.767 223.315 181.164 223.833 181.715C224.352 182.259 224.681 182.868 224.82 183.539C224.958 184.211 224.953 184.855 224.803 185.47C224.613 186.254 224.277 186.862 223.794 187.293C223.319 187.727 222.752 187.956 222.094 187.981L222.212 187.495C223.042 187.889 223.598 188.453 223.88 189.187C224.167 189.923 224.217 190.679 224.028 191.456C223.825 192.292 223.491 192.989 223.025 193.549C222.567 194.11 221.979 194.495 221.263 194.705C220.548 194.909 219.714 194.895 218.762 194.663L212.562 193.157ZM215.849 191.321L219.094 192.11C219.45 192.196 219.786 192.199 220.101 192.118C220.417 192.03 220.686 191.869 220.908 191.635C221.137 191.395 221.298 191.088 221.389 190.712C221.469 190.382 221.473 190.07 221.4 189.778C221.327 189.486 221.169 189.232 220.927 189.015C220.692 188.793 220.371 188.633 219.963 188.534L216.717 187.745L215.849 191.321ZM217.317 185.277L220.194 185.976C220.492 186.048 220.77 186.061 221.028 186.014C221.287 185.967 221.51 185.853 221.698 185.673C221.887 185.485 222.024 185.22 222.107 184.877C222.211 184.449 222.166 184.057 221.971 183.701C221.776 183.345 221.426 183.106 220.921 182.983L218.045 182.284L217.317 185.277ZM224.917 196.159L228.317 182.166L230.96 182.809L229.808 187.551L233.073 188.344C233.203 188.376 233.382 188.426 233.612 188.496C233.844 188.559 234.047 188.629 234.22 188.705C235.018 189.036 235.631 189.477 236.06 190.027C236.495 190.579 236.761 191.206 236.858 191.909C236.963 192.607 236.92 193.347 236.73 194.131C236.539 194.915 236.24 195.597 235.831 196.177C235.424 196.75 234.901 197.182 234.261 197.473C233.627 197.765 232.877 197.874 232.01 197.801C231.822 197.782 231.61 197.751 231.374 197.708C231.144 197.666 230.961 197.628 230.825 197.595L224.917 196.159ZM228.16 194.333L231.308 195.098C231.444 195.131 231.595 195.161 231.76 195.188C231.925 195.214 232.08 195.224 232.226 195.218C232.606 195.208 232.92 195.113 233.17 194.933C233.421 194.747 233.616 194.524 233.755 194.262C233.902 193.996 234.006 193.737 234.067 193.484C234.129 193.232 234.154 192.957 234.144 192.659C234.142 192.357 234.072 192.069 233.932 191.795C233.795 191.514 233.56 191.282 233.227 191.098C233.1 191.026 232.958 190.964 232.799 190.912C232.64 190.86 232.493 190.817 232.357 190.784L229.208 190.019L228.16 194.333ZM237.005 199.097L240.405 185.104L243.049 185.746L239.648 199.739L237.005 199.097ZM242.378 200.402L245.778 186.41L248.46 187.061L246.193 196.39L254.543 188.539L257.225 189.191L253.825 203.184L251.143 202.532L253.41 193.204L245.06 201.054L242.378 200.402ZM251.736 186.623C251.166 186.484 250.682 186.219 250.283 185.827C249.885 185.435 249.603 184.972 249.437 184.438C249.272 183.904 249.259 183.352 249.397 182.782L251.438 183.277C251.367 183.569 251.407 183.843 251.557 184.099C251.716 184.35 251.941 184.511 252.232 184.582C252.524 184.653 252.794 184.612 253.044 184.46C253.302 184.303 253.466 184.079 253.537 183.787L255.577 184.283C255.439 184.853 255.174 185.338 254.782 185.737C254.39 186.135 253.927 186.417 253.393 186.582C252.859 186.748 252.307 186.761 251.736 186.623ZM172.378 211.486C171.328 211.231 170.427 210.844 169.675 210.325C168.931 209.802 168.351 209.143 167.933 208.348C167.522 207.555 167.288 206.627 167.231 205.564L169.971 205.55C170.036 206.355 170.311 207.074 170.796 207.706C171.28 208.338 171.95 208.755 172.807 208.956C173.413 209.09 174.015 209.109 174.614 209.015C175.22 208.922 175.748 208.683 176.198 208.298C176.52 208.047 176.791 207.753 177.01 207.415C177.237 207.072 177.428 206.711 177.582 206.33L172.685 205.14L173.285 202.671L178.202 203.866C178.258 203.125 178.183 202.445 177.977 201.825C177.771 201.206 177.432 200.681 176.96 200.251C176.489 199.821 175.882 199.522 175.14 199.356C174.264 199.15 173.459 199.215 172.726 199.551C171.999 199.889 171.42 200.434 170.99 201.188L168.437 200.176C169.158 198.732 170.168 197.725 171.466 197.156C172.764 196.586 174.248 196.504 175.92 196.911C177.274 197.24 178.368 197.831 179.203 198.686C180.046 199.536 180.604 200.574 180.875 201.799C181.147 203.025 181.107 204.36 180.756 205.804C180.426 207.165 179.861 208.331 179.062 209.303C178.27 210.277 177.299 210.967 176.151 211.374C175.009 211.783 173.751 211.82 172.378 211.486ZM183.858 213.967L186.658 202.443L182.247 201.371L182.847 198.903L194.313 201.689L193.713 204.157L189.302 203.085L186.501 214.61L183.858 213.967ZM191.123 215.733L198.799 202.779L202.744 203.738L203.619 218.77L200.898 218.108L200.088 204.842L200.593 204.965L193.844 216.394L191.123 215.733ZM194.397 213.441L194.996 210.973L202.382 212.768L201.782 215.236L194.397 213.441ZM205.361 219.193L208.761 205.2L220.305 208.005L216.905 221.998L214.262 221.356L217.062 209.831L210.805 208.31L208.004 219.835L205.361 219.193ZM127.71 228.109L131.11 214.116L136.707 215.476C137.705 215.719 138.463 216.116 138.981 216.667C139.5 217.212 139.829 217.82 139.968 218.491C140.106 219.163 140.101 219.807 139.951 220.422C139.761 221.206 139.424 221.814 138.942 222.245C138.466 222.679 137.9 222.908 137.242 222.933L137.36 222.448C138.19 222.841 138.746 223.405 139.027 224.139C139.315 224.875 139.365 225.631 139.176 226.408C138.973 227.244 138.639 227.942 138.173 228.501C137.715 229.062 137.127 229.447 136.41 229.657C135.695 229.861 134.862 229.847 133.91 229.616L127.71 228.109ZM130.996 226.273L134.242 227.062C134.598 227.148 134.934 227.151 135.249 227.07C135.565 226.982 135.834 226.821 136.055 226.587C136.285 226.347 136.446 226.04 136.537 225.664C136.617 225.334 136.621 225.023 136.548 224.73C136.475 224.438 136.317 224.184 136.075 223.967C135.84 223.745 135.519 223.585 135.111 223.486L131.865 222.697L130.996 226.273ZM132.465 220.229L135.341 220.928C135.639 221 135.918 221.013 136.176 220.966C136.434 220.919 136.658 220.805 136.846 220.625C137.035 220.437 137.172 220.172 137.255 219.829C137.359 219.401 137.314 219.009 137.119 218.653C136.924 218.297 136.574 218.058 136.069 217.935L133.192 217.236L132.465 220.229ZM140.084 231.116L143.485 217.123L146.128 217.766L144.73 223.518L150.988 225.039L152.386 219.286L155.029 219.928L151.628 233.921L148.985 233.279L150.388 227.507L144.13 225.986L142.727 231.758L140.084 231.116ZM154.356 234.584L157.757 220.591L166.891 222.811L166.291 225.279L159.8 223.702L159.073 226.695L164.398 227.989L163.798 230.457L158.473 229.163L157.599 232.758L164.09 234.336L163.491 236.804L154.356 234.584ZM164.476 239.513L165.642 234.713C166.063 234.815 166.445 234.798 166.787 234.662C167.136 234.52 167.452 234.281 167.733 233.945C168.015 233.602 168.274 233.184 168.51 232.693C168.746 232.201 168.964 231.657 169.164 231.061C169.418 230.299 169.662 229.549 169.896 228.81C170.132 228.065 170.374 227.294 170.623 226.497C170.873 225.693 171.146 224.826 171.44 223.896L180.725 226.173L177.925 237.697L178.994 237.957L177.827 242.758L175.184 242.115L175.751 239.783L167.685 237.823L167.119 240.155L164.476 239.513ZM169.587 235.671L175.282 237.055L177.482 227.999L173.25 226.95C173.049 227.58 172.867 228.16 172.704 228.69C172.547 229.221 172.383 229.758 172.21 230.299C172.037 230.84 171.836 231.443 171.606 232.107C171.376 232.772 171.175 233.316 171.003 233.741C170.833 234.159 170.64 234.514 170.426 234.805C170.217 235.097 169.938 235.386 169.587 235.671ZM180.528 240.944L183.929 226.951L189.837 228.387C189.973 228.42 190.153 228.471 190.376 228.539C190.608 228.602 190.81 228.672 190.984 228.748C191.788 229.081 192.405 229.522 192.833 230.072C193.269 230.624 193.535 231.251 193.632 231.954C193.73 232.65 193.684 233.39 193.494 234.174C193.303 234.958 193 235.639 192.585 236.218C192.178 236.791 191.655 237.223 191.015 237.513C190.381 237.805 189.634 237.915 188.774 237.843C188.586 237.825 188.374 237.794 188.138 237.751C187.901 237.707 187.718 237.669 187.589 237.638L184.324 236.844L183.171 241.586L180.528 240.944ZM184.924 234.376L188.072 235.141C188.208 235.174 188.359 235.204 188.524 235.23C188.689 235.257 188.844 235.267 188.989 235.261C189.369 235.251 189.684 235.156 189.934 234.976C190.185 234.79 190.38 234.567 190.518 234.305C190.665 234.039 190.77 233.78 190.831 233.527C190.892 233.275 190.918 232.999 190.908 232.702C190.906 232.4 190.835 232.112 190.696 231.838C190.559 231.557 190.323 231.325 189.991 231.141C189.864 231.069 189.721 231.007 189.563 230.955C189.404 230.903 189.256 230.86 189.12 230.827L185.972 230.062L184.924 234.376ZM193.168 244.016L196.569 230.023L205.703 232.243L205.103 234.711L198.612 233.133L197.885 236.126L203.21 237.42L202.61 239.888L197.285 238.594L196.411 242.19L202.902 243.767L202.302 246.235L193.168 244.016ZM204.632 246.801L208.032 232.809L210.675 233.451L209.277 239.203L215.535 240.724L216.933 234.972L219.576 235.614L216.176 249.607L213.533 248.964L214.935 243.192L208.677 241.672L207.275 247.444L204.632 246.801ZM230.351 253.051L227.669 252.399L229.936 243.071L221.586 250.921L218.904 250.27L222.304 236.277L224.986 236.928L222.719 246.257L231.069 238.407L233.751 239.058L230.351 253.051ZM243.362 256.213L240.719 255.571L241.871 250.829L238.606 250.035L237.459 249.674C236.263 249.178 235.474 248.444 235.092 247.473C234.712 246.496 234.665 245.421 234.95 244.248C235.14 243.464 235.439 242.786 235.846 242.212C236.261 241.634 236.785 241.199 237.418 240.907C238.052 240.615 238.802 240.505 239.67 240.579C239.865 240.592 240.077 240.623 240.306 240.672C240.535 240.714 240.718 240.752 240.854 240.785L246.763 242.22L243.362 256.213ZM235.472 254.296L232.479 253.568L237.022 248.086L239.615 249.272L235.472 254.296ZM242.471 248.361L243.52 244.046L240.371 243.281C240.235 243.248 240.085 243.218 239.92 243.192C239.754 243.165 239.599 243.155 239.454 243.161C239.074 243.172 238.758 243.27 238.507 243.456C238.258 243.635 238.06 243.858 237.913 244.124C237.774 244.386 237.674 244.643 237.612 244.895C237.551 245.148 237.521 245.425 237.523 245.728C237.533 246.025 237.607 246.314 237.745 246.595C237.884 246.868 238.12 247.097 238.453 247.281C238.579 247.353 238.722 247.415 238.881 247.467C239.039 247.52 239.187 247.562 239.323 247.596L242.471 248.361Z" fill="white"/>
</g>
<defs>
<clipPath id="clip0_26_36">
<rect width="321.356" height="320.352" fill="white" transform="translate(75.6456) rotate(13.6584)"/>
</clipPath>
</defs>
</svg>
